STARTFONT 2.1
FONT -FontForge-TenStamps-Medium-R-Normal--16-150-75-75-P-145-ISO10646-1
SIZE 15 75 75
FONTBOUNDINGBOX 15 15 -1 -3
COMMENT "Generated by fontforge, http://fontforge.sourceforge.net"
COMMENT "Geoff"
STARTPROPERTIES 40
FOUNDRY "FontForge"
FAMILY_NAME "TenStamps"
WEIGHT_NAME "Medium"
SLANT "R"
SETWIDTH_NAME "Normal"
ADD_STYLE_NAME ""
PIXEL_SIZE 16
POINT_SIZE 150
RESOLUTION_X 75
RESOLUTION_Y 75
SPACING "P"
AVERAGE_WIDTH 145
CHARSET_REGISTRY "ISO10646"
CHARSET_ENCODING "1"
FONTNAME_REGISTRY ""
CHARSET_COLLECTIONS "ISO10646-1"
FONT_NAME "TenStamps"
FACE_NAME "TenStamps"
COPYRIGHT "Geoff"
FONT_VERSION "001.000"
FONT_ASCENT 12
FONT_DESCENT 4
UNDERLINE_POSITION -2
UNDERLINE_THICKNESS 1
X_HEIGHT 11
CAP_HEIGHT 11
RAW_ASCENT 750
RAW_DESCENT 250
NORM_SPACE 5
RELATIVE_WEIGHT 50
RELATIVE_SETWIDTH 50
SUPERSCRIPT_X 0
SUPERSCRIPT_Y 7
SUPERSCRIPT_SIZE 11
SUBSCRIPT_X 0
SUBSCRIPT_Y 2
SUBSCRIPT_SIZE 11
FIGURE_WIDTH 15
AVG_LOWERCASE_WIDTH 150
AVG_UPPERCASE_WIDTH 150
ENDPROPERTIES
CHARS 127
STARTCHAR space
ENCODING 32
SWIDTH 312 0
DWIDTH 5 0
BBX 1 1 0 0
BITMAP
00
ENDCHAR
STARTCHAR exclam
ENCODING 33
SWIDTH 937 0
DWIDTH 15 0
BBX 14 15 -1 -3
BITMAP
3FF0
7FF8
FFFC
F87C
F87C
F87C
F87C
F87C
F87C
FFFC
F87C
F87C
FFFC
7FF8
3FF0
ENDCHAR
STARTCHAR quotedbl
ENCODING 34
SWIDTH 937 0
DWIDTH 15 0
BBX 14 15 -1 -3
BITMAP
3FF0
7FF8
FFFC
F33C
F33C
F33C
FB7C
FFFC
FFFC
FFFC
FFFC
FFFC
FFFC
7FF8
3FF0
ENDCHAR
STARTCHAR numbersign
ENCODING 35
SWIDTH 937 0
DWIDTH 15 0
BBX 14 15 -1 -3
BITMAP
3FF0
7FF8
FFFC
FFFC
F33C
E01C
F33C
F33C
F33C
E01C
F33C
FFFC
FFFC
7FF8
3FF0
ENDCHAR
STARTCHAR dollar
ENCODING 36
SWIDTH 937 0
DWIDTH 15 0
BBX 14 15 -1 -3
BITMAP
3FF0
7FF8
FFFC
FCFC
F03C
E49C
E4FC
F03C
FC9C
E49C
F03C
FCFC
FFFC
7FF8
3FF0
ENDCHAR
STARTCHAR percent
ENCODING 37
SWIDTH 937 0
DWIDTH 15 0
BBX 14 15 -1 -3
BITMAP
3FF0
7FF8
FFFC
F71C
EB1C
F71C
FE3C
F87C
F1FC
E3BC
E35C
E3BC
FFFC
7FF8
3FF0
ENDCHAR
STARTCHAR ampersand
ENCODING 38
SWIDTH 937 0
DWIDTH 15 0
BBX 14 15 -1 -3
BITMAP
3FF0
7FF8
FFFC
F0FC
E67C
E67C
E4FC
F09C
E63C
E73C
E63C
F09C
FFFC
7FF8
3FF0
ENDCHAR
STARTCHAR quotesingle
ENCODING 39
SWIDTH 937 0
DWIDTH 15 0
BBX 14 15 -1 -3
BITMAP
3FF0
7FF8
FFFC
FCFC
FCFC
FCFC
FCFC
FFFC
FFFC
FFFC
FFFC
FFFC
FFFC
7FF8
3FF0
ENDCHAR
STARTCHAR parenleft
ENCODING 40
SWIDTH 937 0
DWIDTH 15 0
BBX 14 15 -1 -3
BITMAP
3FF0
7FF8
FFFC
FC7C
F8FC
F8FC
F8FC
F8FC
F8FC
F8FC
F8FC
FC7C
FFFC
7FF8
3FF0
ENDCHAR
STARTCHAR parenright
ENCODING 41
SWIDTH 937 0
DWIDTH 15 0
BBX 14 15 -1 -3
BITMAP
3FF0
7FF8
FFFC
F8FC
FC7C
FC7C
FC7C
FC7C
FC7C
FC7C
FC7C
F8FC
FFFC
7FF8
3FF0
ENDCHAR
STARTCHAR asterisk
ENCODING 42
SWIDTH 937 0
DWIDTH 15 0
BBX 14 15 -1 -3
BITMAP
3FF0
7FF8
FFFC
FFFC
FFFC
F33C
F33C
FCFC
F33C
F33C
FFFC
FFFC
FFFC
7FF8
3FF0
ENDCHAR
STARTCHAR plus
ENCODING 43
SWIDTH 937 0
DWIDTH 15 0
BBX 14 15 -1 -3
BITMAP
3FF0
7FF8
FFFC
FFFC
FFFC
FCFC
FCFC
F03C
FCFC
FCFC
FFFC
FFFC
FFFC
7FF8
3FF0
ENDCHAR
STARTCHAR comma
ENCODING 44
SWIDTH 937 0
DWIDTH 15 0
BBX 14 15 -1 -3
BITMAP
3FF0
7FF8
FFFC
FFFC
FFFC
FFFC
FFFC
FFFC
FFFC
FFFC
FCFC
FCFC
F9FC
7FF8
3FF0
ENDCHAR
STARTCHAR hyphen
ENCODING 45
SWIDTH 937 0
DWIDTH 15 0
BBX 14 15 -1 -3
BITMAP
3FF0
7FF8
FFFC
FFFC
FFFC
FFFC
FFFC
F87C
FFFC
FFFC
FFFC
FFFC
FFFC
7FF8
3FF0
ENDCHAR
STARTCHAR period
ENCODING 46
SWIDTH 937 0
DWIDTH 15 0
BBX 14 15 -1 -3
BITMAP
3FF0
7FF8
FFFC
FFFC
FFFC
FFFC
FFFC
FFFC
FFFC
FFFC
FCFC
FCFC
FFFC
7FF8
3FF0
ENDCHAR
STARTCHAR slash
ENCODING 47
SWIDTH 937 0
DWIDTH 15 0
BBX 14 15 -1 -3
BITMAP
3FF0
7FF8
FFFC
FF9C
FF1C
FE1C
FC3C
F87C
F0FC
E1FC
E3FC
E7FC
FFFC
7FF8
3FF0
ENDCHAR
STARTCHAR zero
ENCODING 48
SWIDTH 937 0
DWIDTH 15 0
BBX 14 15 -1 -3
BITMAP
3FF0
7FF8
FFFC
F87C
F33C
E31C
E31C
E31C
E31C
E31C
F33C
F87C
FFFC
7FF8
3FF0
ENDCHAR
STARTCHAR one
ENCODING 49
SWIDTH 937 0
DWIDTH 15 0
BBX 14 15 -1 -3
BITMAP
3FF0
7FF8
FFFC
FE7C
FC7C
F87C
FC7C
FC7C
FC7C
FC7C
FC7C
F83C
FFFC
7FF8
3FF0
ENDCHAR
STARTCHAR two
ENCODING 50
SWIDTH 937 0
DWIDTH 15 0
BBX 14 15 -1 -3
BITMAP
3FF0
7FF8
FFFC
F03C
E31C
FF1C
FE1C
FC3C
F87C
F0FC
E1FC
E01C
FFFC
7FF8
3FF0
ENDCHAR
STARTCHAR three
ENCODING 51
SWIDTH 937 0
DWIDTH 15 0
BBX 14 15 -1 -3
BITMAP
3FF0
7FF8
FFFC
F03C
E31C
FF1C
FF1C
FC3C
FF1C
FF1C
E31C
F03C
FFFC
7FF8
3FF0
ENDCHAR
STARTCHAR four
ENCODING 52
SWIDTH 937 0
DWIDTH 15 0
BBX 14 15 -1 -3
BITMAP
3FF0
7FF8
FFFC
E31C
E31C
E31C
E31C
E01C
FF1C
FF1C
FF1C
FF1C
FFFC
7FF8
3FF0
ENDCHAR
STARTCHAR five
ENCODING 53
SWIDTH 937 0
DWIDTH 15 0
BBX 14 15 -1 -3
BITMAP
3FF0
7FF8
FFFC
E01C
E3FC
E3FC
E3FC
E03C
FF1C
FF1C
E31C
F03C
FFFC
7FF8
3FF0
ENDCHAR
STARTCHAR six
ENCODING 54
SWIDTH 937 0
DWIDTH 15 0
BBX 14 15 -1 -3
BITMAP
3FF0
7FF8
FFFC
F03C
E3FC
E3FC
E3FC
E03C
E31C
E31C
E31C
F03C
FFFC
7FF8
3FF0
ENDCHAR
STARTCHAR seven
ENCODING 55
SWIDTH 937 0
DWIDTH 15 0
BBX 14 15 -1 -3
BITMAP
3FF0
7FF8
FFFC
E01C
FF1C
FF1C
FE3C
FC7C
F8FC
F8FC
F8FC
F8FC
FFFC
7FF8
3FF0
ENDCHAR
STARTCHAR eight
ENCODING 56
SWIDTH 937 0
DWIDTH 15 0
BBX 14 15 -1 -3
BITMAP
3FF0
7FF8
FFFC
F03C
E31C
E31C
E31C
F03C
E31C
E31C
E31C
F03C
FFFC
7FF8
3FF0
ENDCHAR
STARTCHAR nine
ENCODING 57
SWIDTH 937 0
DWIDTH 15 0
BBX 14 15 -1 -3
BITMAP
3FF0
7FF8
FFFC
F03C
E31C
E31C
E31C
F01C
FF1C
FF1C
E31C
F03C
FFFC
7FF8
3FF0
ENDCHAR
STARTCHAR colon
ENCODING 58
SWIDTH 937 0
DWIDTH 15 0
BBX 14 15 -1 -3
BITMAP
3FF0
7FF8
FFFC
FFFC
FFFC
FCFC
FCFC
FFFC
FFFC
FCFC
FCFC
FFFC
FFFC
7FF8
3FF0
ENDCHAR
STARTCHAR semicolon
ENCODING 59
SWIDTH 937 0
DWIDTH 15 0
BBX 14 15 -1 -3
BITMAP
3FF0
7FF8
FFFC
FFFC
FFFC
FCFC
FCFC
FFFC
FFFC
FCFC
FCFC
F9FC
FFFC
7FF8
3FF0
ENDCHAR
STARTCHAR less
ENCODING 60
SWIDTH 937 0
DWIDTH 15 0
BBX 14 15 -1 -3
BITMAP
3FF0
7FF8
FE3C
FC7C
F8FC
F1FC
E3FC
E3FC
F1FC
F8FC
FC7C
FE3C
FFFC
7FF8
3FF0
ENDCHAR
STARTCHAR equal
ENCODING 61
SWIDTH 937 0
DWIDTH 15 0
BBX 14 15 -1 -3
BITMAP
3FF0
7FF8
FFFC
FFFC
FFFC
FFFC
F87C
FFFC
F87C
FFFC
FFFC
FFFC
FFFC
7FF8
3FF0
ENDCHAR
STARTCHAR greater
ENCODING 62
SWIDTH 937 0
DWIDTH 15 0
BBX 14 15 -1 -3
BITMAP
3FF0
7FF8
F1FC
F8FC
FC7C
FE3C
FF1C
FF1C
FE3C
FC7C
F8FC
F1FC
FFFC
7FF8
3FF0
ENDCHAR
STARTCHAR question
ENCODING 63
SWIDTH 937 0
DWIDTH 15 0
BBX 14 15 -1 -3
BITMAP
3FF0
7FF8
FFFC
F03C
E31C
FF1C
FF1C
FC3C
F87C
FFFC
F87C
F87C
FFFC
7FF8
3FF0
ENDCHAR
STARTCHAR at
ENCODING 64
SWIDTH 937 0
DWIDTH 15 0
BBX 14 15 -1 -3
BITMAP
3FF0
7FF8
FFFC
F87C
F7BC
ECDC
EB5C
EB5C
EB5C
ECBC
F7FC
F87C
FFFC
7FF8
3FF0
ENDCHAR
STARTCHAR A
ENCODING 65
SWIDTH 937 0
DWIDTH 15 0
BBX 14 15 -1 -3
BITMAP
3FF0
7FF8
FFFC
F87C
F03C
E31C
E31C
E31C
E01C
E31C
E31C
E31C
FFFC
7FF8
3FF0
ENDCHAR
STARTCHAR B
ENCODING 66
SWIDTH 937 0
DWIDTH 15 0
BBX 14 15 -1 -3
BITMAP
3FF0
7FF8
FFFC
E03C
E31C
E31C
E31C
E03C
E31C
E31C
E31C
E03C
FFFC
7FF8
3FF0
ENDCHAR
STARTCHAR C
ENCODING 67
SWIDTH 937 0
DWIDTH 15 0
BBX 14 15 -1 -3
BITMAP
3FF0
7FF8
FFFC
F03C
E39C
E3FC
E3FC
E3FC
E3FC
E3FC
E39C
F03C
FFFC
7FF8
3FF0
ENDCHAR
STARTCHAR D
ENCODING 68
SWIDTH 937 0
DWIDTH 15 0
BBX 14 15 -1 -3
BITMAP
3FF0
7FF8
FFFC
E03C
E31C
E31C
E31C
E31C
E31C
E31C
E31C
E03C
FFFC
7FF8
3FF0
ENDCHAR
STARTCHAR E
ENCODING 69
SWIDTH 937 0
DWIDTH 15 0
BBX 14 15 -1 -3
BITMAP
3FF0
7FF8
FFFC
E01C
E3FC
E3FC
E3FC
E03C
E3FC
E3FC
E3FC
E01C
FFFC
7FF8
3FF0
ENDCHAR
STARTCHAR F
ENCODING 70
SWIDTH 937 0
DWIDTH 15 0
BBX 14 15 -1 -3
BITMAP
3FF0
7FF8
FFFC
E01C
E3FC
E3FC
E3FC
E03C
E3FC
E3FC
E3FC
E3FC
FFFC
7FF8
3FF0
ENDCHAR
STARTCHAR G
ENCODING 71
SWIDTH 937 0
DWIDTH 15 0
BBX 14 15 -1 -3
BITMAP
3FF0
7FF8
FFFC
F03C
E31C
E3FC
E3FC
E21C
E31C
E31C
E31C
F03C
FFFC
7FF8
3FF0
ENDCHAR
STARTCHAR H
ENCODING 72
SWIDTH 937 0
DWIDTH 15 0
BBX 14 15 -1 -3
BITMAP
3FF0
7FF8
FFFC
E31C
E31C
E31C
E31C
E01C
E31C
E31C
E31C
E31C
FFFC
7FF8
3FF0
ENDCHAR
STARTCHAR I
ENCODING 73
SWIDTH 937 0
DWIDTH 15 0
BBX 14 15 -1 -3
BITMAP
3FF0
7FF8
FFFC
F03C
F87C
F87C
F87C
F87C
F87C
F87C
F87C
F03C
FFFC
7FF8
3FF0
ENDCHAR
STARTCHAR J
ENCODING 74
SWIDTH 937 0
DWIDTH 15 0
BBX 14 15 -1 -3
BITMAP
3FF0
7FF8
FFFC
FE1C
FF1C
FF1C
FF1C
FF1C
FF1C
E31C
E31C
F03C
FFFC
7FF8
3FF0
ENDCHAR
STARTCHAR K
ENCODING 75
SWIDTH 937 0
DWIDTH 15 0
BBX 14 15 -1 -3
BITMAP
3FF0
7FF8
FFFC
E31C
E31C
E31C
E23C
E07C
E23C
E31C
E31C
E31C
FFFC
7FF8
3FF0
ENDCHAR
STARTCHAR L
ENCODING 76
SWIDTH 937 0
DWIDTH 15 0
BBX 14 15 -1 -3
BITMAP
3FF0
7FF8
FFFC
E3FC
E3FC
E3FC
E3FC
E3FC
E3FC
E3FC
E3FC
E01C
FFFC
7FF8
3FF0
ENDCHAR
STARTCHAR M
ENCODING 77
SWIDTH 937 0
DWIDTH 15 0
BBX 14 15 -1 -3
BITMAP
3FF0
7FF8
FFFC
CFCC
C78C
C30C
C00C
C00C
C48C
C78C
C78C
C78C
FFFC
7FF8
3FF0
ENDCHAR
STARTCHAR N
ENCODING 78
SWIDTH 937 0
DWIDTH 15 0
BBX 14 15 -1 -3
BITMAP
3FF0
7FF8
FFFC
E31C
E11C
E01C
E01C
E01C
E21C
E31C
E31C
E31C
FFFC
7FF8
3FF0
ENDCHAR
STARTCHAR O
ENCODING 79
SWIDTH 937 0
DWIDTH 15 0
BBX 14 15 -1 -3
BITMAP
3FF0
7FF8
FFFC
F03C
E31C
E31C
E31C
E31C
E31C
E31C
E31C
F03C
FFFC
7FF8
3FF0
ENDCHAR
STARTCHAR P
ENCODING 80
SWIDTH 937 0
DWIDTH 15 0
BBX 14 15 -1 -3
BITMAP
3FF0
7FF8
FFFC
E03C
E31C
E31C
E31C
E03C
E3FC
E3FC
E3FC
E3FC
FFFC
7FF8
3FF0
ENDCHAR
STARTCHAR Q
ENCODING 81
SWIDTH 937 0
DWIDTH 15 0
BBX 14 15 -1 -3
BITMAP
3FF0
7FF8
FFFC
F03C
E31C
E31C
E31C
E31C
E31C
E33C
E21C
F09C
FFFC
7FF8
3FF0
ENDCHAR
STARTCHAR R
ENCODING 82
SWIDTH 937 0
DWIDTH 15 0
BBX 14 15 -1 -3
BITMAP
3FF0
7FF8
FFFC
E03C
E31C
E31C
E33C
E07C
E23C
E31C
E31C
E31C
FFFC
7FF8
3FF0
ENDCHAR
STARTCHAR S
ENCODING 83
SWIDTH 937 0
DWIDTH 15 0
BBX 14 15 -1 -3
BITMAP
3FF0
7FF8
FFFC
F03C
E31C
E3FC
E3FC
F03C
FF1C
FF1C
E31C
F03C
FFFC
7FF8
3FF0
ENDCHAR
STARTCHAR T
ENCODING 84
SWIDTH 937 0
DWIDTH 15 0
BBX 14 15 -1 -3
BITMAP
3FF0
7FF8
FFFC
E01C
F87C
F87C
F87C
F87C
F87C
F87C
F87C
F87C
FFFC
7FF8
3FF0
ENDCHAR
STARTCHAR U
ENCODING 85
SWIDTH 937 0
DWIDTH 15 0
BBX 14 15 -1 -3
BITMAP
3FF0
7FF8
FFFC
E31C
E31C
E31C
E31C
E31C
E31C
E31C
E31C
F03C
FFFC
7FF8
3FF0
ENDCHAR
STARTCHAR V
ENCODING 86
SWIDTH 937 0
DWIDTH 15 0
BBX 14 15 -1 -3
BITMAP
3FF0
7FF8
FFFC
E31C
E31C
E31C
E31C
E31C
E31C
F33C
F87C
FCFC
FFFC
7FF8
3FF0
ENDCHAR
STARTCHAR W
ENCODING 87
SWIDTH 937 0
DWIDTH 15 0
BBX 14 15 -1 -3
BITMAP
3FF0
7FF8
FFFC
C78C
C78C
C78C
C48C
C48C
C48C
C00C
C30C
E79C
FFFC
7FF8
3FF0
ENDCHAR
STARTCHAR X
ENCODING 88
SWIDTH 937 0
DWIDTH 15 0
BBX 14 15 -1 -3
BITMAP
3FF0
7FF8
FFFC
E31C
E31C
E31C
F33C
F87C
F33C
E31C
E31C
E31C
FFFC
7FF8
3FF0
ENDCHAR
STARTCHAR Y
ENCODING 89
SWIDTH 937 0
DWIDTH 15 0
BBX 14 15 -1 -3
BITMAP
3FF0
7FF8
FFFC
E31C
E31C
E31C
E31C
F03C
F87C
F87C
F87C
F87C
FFFC
7FF8
3FF0
ENDCHAR
STARTCHAR Z
ENCODING 90
SWIDTH 937 0
DWIDTH 15 0
BBX 14 15 -1 -3
BITMAP
3FF0
7FF8
FFFC
E01C
FF1C
FE1C
FC3C
F87C
F0FC
E1FC
E3FC
E01C
FFFC
7FF8
3FF0
ENDCHAR
STARTCHAR bracketleft
ENCODING 91
SWIDTH 937 0
DWIDTH 15 0
BBX 14 15 -1 -3
BITMAP
3FF0
7FF8
FFFC
F87C
F9FC
F9FC
F9FC
F9FC
F9FC
F9FC
F9FC
F87C
FFFC
7FF8
3FF0
ENDCHAR
STARTCHAR backslash
ENCODING 92
SWIDTH 937 0
DWIDTH 15 0
BBX 14 15 -1 -3
BITMAP
3FF0
7FF8
FFFC
E7FC
E3FC
E1FC
F0FC
F87C
FC3C
FE1C
FF1C
FF9C
FFFC
7FF8
3FF0
ENDCHAR
STARTCHAR bracketright
ENCODING 93
SWIDTH 937 0
DWIDTH 15 0
BBX 14 15 -1 -3
BITMAP
3FF0
7FF8
FFFC
F87C
FE7C
FE7C
FE7C
FE7C
FE7C
FE7C
FE7C
F87C
FFFC
7FF8
3FF0
ENDCHAR
STARTCHAR asciicircum
ENCODING 94
SWIDTH 937 0
DWIDTH 15 0
BBX 14 15 -1 -3
BITMAP
3FF0
7FF8
FFFC
FCFC
F87C
F33C
F7BC
FFFC
FFFC
FFFC
FFFC
FFFC
FFFC
7FF8
3FF0
ENDCHAR
STARTCHAR underscore
ENCODING 95
SWIDTH 937 0
DWIDTH 15 0
BBX 14 15 -1 -3
BITMAP
3FF0
7FF8
FFFC
FFFC
FFFC
FFFC
FFFC
FFFC
FFFC
FFFC
FFFC
FFFC
E01C
7FF8
3FF0
ENDCHAR
STARTCHAR grave
ENCODING 96
SWIDTH 937 0
DWIDTH 15 0
BBX 14 15 -1 -3
BITMAP
3FF0
7FF8
FFFC
FCFC
FCFC
FE7C
FFFC
FFFC
FFFC
FFFC
FFFC
FFFC
FFFC
7FF8
3FF0
ENDCHAR
STARTCHAR a
ENCODING 97
SWIDTH 937 0
DWIDTH 15 0
BBX 14 15 -1 -3
BITMAP
3FF0
7FF8
FFFC
FFFC
FFFC
F03C
FF1C
FF1C
F01C
E31C
E31C
F09C
FFFC
7FF8
3FF0
ENDCHAR
STARTCHAR b
ENCODING 98
SWIDTH 937 0
DWIDTH 15 0
BBX 14 15 -1 -3
BITMAP
3FF0
7FF8
FFFC
E3FC
E3FC
E03C
E31C
E31C
E31C
E31C
E31C
F03C
FFFC
7FF8
3FF0
ENDCHAR
STARTCHAR c
ENCODING 99
SWIDTH 937 0
DWIDTH 15 0
BBX 14 15 -1 -3
BITMAP
3FF0
7FF8
FFFC
FFFC
FFFC
F03C
E31C
E3FC
E3FC
E3FC
E31C
F03C
FFFC
7FF8
3FF0
ENDCHAR
STARTCHAR d
ENCODING 100
SWIDTH 937 0
DWIDTH 15 0
BBX 14 15 -1 -3
BITMAP
3FF0
7FF8
FFFC
FF1C
FF1C
F01C
E31C
E31C
E31C
E31C
E31C
F03C
FFFC
7FF8
3FF0
ENDCHAR
STARTCHAR e
ENCODING 101
SWIDTH 937 0
DWIDTH 15 0
BBX 14 15 -1 -3
BITMAP
3FF0
7FF8
FFFC
FFFC
FFFC
F03C
E31C
E31C
E01C
E3FC
E31C
F03C
FFFC
7FF8
3FF0
ENDCHAR
STARTCHAR f
ENCODING 102
SWIDTH 937 0
DWIDTH 15 0
BBX 14 15 -1 -3
BITMAP
3FF0
7FF8
FC3C
F8FC
F8FC
F03C
F8FC
F8FC
F8FC
F8FC
F8FC
F8FC
FFFC
7FF8
3FF0
ENDCHAR
STARTCHAR g
ENCODING 103
SWIDTH 937 0
DWIDTH 15 0
BBX 14 15 -1 -3
BITMAP
3FF0
7FF8
FFFC
FFFC
FFFC
F09C
E31C
E31C
E31C
E31C
E31C
F01C
FF1C
7038
3FF0
ENDCHAR
STARTCHAR h
ENCODING 104
SWIDTH 937 0
DWIDTH 15 0
BBX 14 15 -1 -3
BITMAP
3FF0
7FF8
FFFC
E3FC
E3FC
E03C
E31C
E31C
E31C
E31C
E31C
E31C
FFFC
7FF8
3FF0
ENDCHAR
STARTCHAR i
ENCODING 105
SWIDTH 937 0
DWIDTH 15 0
BBX 14 15 -1 -3
BITMAP
3FF0
7FF8
FC7C
FC7C
FFFC
F87C
FC7C
FC7C
FC7C
FC7C
FC7C
F83C
FFFC
7FF8
3FF0
ENDCHAR
STARTCHAR j
ENCODING 106
SWIDTH 937 0
DWIDTH 15 0
BBX 14 15 -1 -3
BITMAP
3FF0
7FF8
FC7C
FC7C
FFFC
F07C
FC7C
FC7C
FC7C
FC7C
FC7C
FC7C
F0FC
7FF8
3FF0
ENDCHAR
STARTCHAR k
ENCODING 107
SWIDTH 937 0
DWIDTH 15 0
BBX 14 15 -1 -3
BITMAP
3FF0
7FF8
FFFC
E3FC
E3FC
E31C
E31C
E23C
E07C
E33C
E31C
E31C
FFFC
7FF8
3FF0
ENDCHAR
STARTCHAR l
ENCODING 108
SWIDTH 937 0
DWIDTH 15 0
BBX 14 15 -1 -3
BITMAP
3FF0
7FF8
FFFC
F07C
F87C
F87C
F87C
F87C
F87C
F87C
F87C
F03C
FFFC
7FF8
3FF0
ENDCHAR
STARTCHAR m
ENCODING 109
SWIDTH 937 0
DWIDTH 15 0
BBX 14 15 -1 -3
BITMAP
3FF0
7FF8
FFFC
FFFC
FFFC
C91C
C00C
C48C
C48C
C48C
C78C
C78C
FFFC
7FF8
3FF0
ENDCHAR
STARTCHAR n
ENCODING 110
SWIDTH 937 0
DWIDTH 15 0
BBX 14 15 -1 -3
BITMAP
3FF0
7FF8
FFFC
FFFC
FFFC
E43C
E31C
E31C
E31C
E31C
E31C
E31C
FFFC
7FF8
3FF0
ENDCHAR
STARTCHAR o
ENCODING 111
SWIDTH 937 0
DWIDTH 15 0
BBX 14 15 -1 -3
BITMAP
3FF0
7FF8
FFFC
FFFC
FFFC
F03C
E31C
E31C
E31C
E31C
E31C
F03C
FFFC
7FF8
3FF0
ENDCHAR
STARTCHAR p
ENCODING 112
SWIDTH 937 0
DWIDTH 15 0
BBX 14 15 -1 -3
BITMAP
3FF0
7FF8
FFFC
FFFC
FFFC
F03C
E31C
E31C
E31C
E31C
E31C
E03C
E3FC
63F8
3FF0
ENDCHAR
STARTCHAR q
ENCODING 113
SWIDTH 937 0
DWIDTH 15 0
BBX 14 15 -1 -3
BITMAP
3FF0
7FF8
FFFC
FFFC
FFFC
F09C
E31C
E31C
E31C
E31C
E31C
F01C
FF1C
7F18
3FF0
ENDCHAR
STARTCHAR r
ENCODING 114
SWIDTH 937 0
DWIDTH 15 0
BBX 14 15 -1 -3
BITMAP
3FF0
7FF8
FFFC
FFFC
FFFC
E43C
E31C
E3FC
E3FC
E3FC
E3FC
E3FC
FFFC
7FF8
3FF0
ENDCHAR
STARTCHAR s
ENCODING 115
SWIDTH 937 0
DWIDTH 15 0
BBX 14 15 -1 -3
BITMAP
3FF0
7FF8
FFFC
FFFC
FFFC
F03C
E31C
E3FC
E03C
FF1C
E31C
F03C
FFFC
7FF8
3FF0
ENDCHAR
STARTCHAR t
ENCODING 116
SWIDTH 937 0
DWIDTH 15 0
BBX 14 15 -1 -3
BITMAP
3FF0
7FF8
FFFC
FCFC
F8FC
F03C
F8FC
F8FC
F8FC
F8FC
F8FC
FC3C
FFFC
7FF8
3FF0
ENDCHAR
STARTCHAR u
ENCODING 117
SWIDTH 937 0
DWIDTH 15 0
BBX 14 15 -1 -3
BITMAP
3FF0
7FF8
FFFC
FFFC
FFFC
E31C
E31C
E31C
E31C
E31C
E31C
F09C
FFFC
7FF8
3FF0
ENDCHAR
STARTCHAR v
ENCODING 118
SWIDTH 937 0
DWIDTH 15 0
BBX 14 15 -1 -3
BITMAP
3FF0
7FF8
FFFC
FFFC
FFFC
E31C
E31C
E31C
E31C
E31C
F33C
F87C
FFFC
7FF8
3FF0
ENDCHAR
STARTCHAR w
ENCODING 119
SWIDTH 937 0
DWIDTH 15 0
BBX 14 15 -1 -3
BITMAP
3FF0
7FF8
FFFC
FFFC
FFFC
C78C
C78C
C48C
C48C
C48C
E49C
F33C
FFFC
7FF8
3FF0
ENDCHAR
STARTCHAR x
ENCODING 120
SWIDTH 937 0
DWIDTH 15 0
BBX 14 15 -1 -3
BITMAP
3FF0
7FF8
FFFC
FFFC
FFFC
E31C
E31C
F33C
F87C
F33C
E31C
E31C
FFFC
7FF8
3FF0
ENDCHAR
STARTCHAR y
ENCODING 121
SWIDTH 937 0
DWIDTH 15 0
BBX 14 15 -1 -3
BITMAP
3FF0
7FF8
FFFC
FFFC
FFFC
E31C
E31C
E31C
E31C
E31C
F31C
F81C
FF1C
7038
3FF0
ENDCHAR
STARTCHAR z
ENCODING 122
SWIDTH 937 0
DWIDTH 15 0
BBX 14 15 -1 -3
BITMAP
3FF0
7FF8
FFFC
FFFC
FFFC
E01C
FE3C
FC7C
F8FC
F1FC
E3FC
E01C
FFFC
7FF8
3FF0
ENDCHAR
STARTCHAR braceleft
ENCODING 123
SWIDTH 937 0
DWIDTH 15 0
BBX 14 15 -1 -3
BITMAP
3FF0
7FF8
FFFC
FC7C
F9FC
F9FC
F9FC
F3FC
F9FC
F9FC
F9FC
FC7C
FFFC
7FF8
3FF0
ENDCHAR
STARTCHAR bar
ENCODING 124
SWIDTH 937 0
DWIDTH 15 0
BBX 14 15 -1 -3
BITMAP
3FF0
7FF8
FCFC
FCFC
FCFC
FCFC
FCFC
FCFC
FCFC
FCFC
FCFC
FCFC
FCFC
7FF8
3FF0
ENDCHAR
STARTCHAR braceright
ENCODING 125
SWIDTH 937 0
DWIDTH 15 0
BBX 14 15 -1 -3
BITMAP
3FF0
7FF8
FFFC
F8FC
FE7C
FE7C
FE7C
FF3C
FE7C
FE7C
FE7C
F8FC
FFFC
7FF8
3FF0
ENDCHAR
STARTCHAR asciitilde
ENCODING 126
SWIDTH 937 0
DWIDTH 15 0
BBX 14 15 -1 -3
BITMAP
3FF0
7FF8
FFFC
FFFC
FFFC
F1FC
E49C
FE3C
FFFC
FFFC
FFFC
FFFC
FFFC
7FF8
3FF0
ENDCHAR
STARTCHAR uni00A0
ENCODING 160
SWIDTH 312 0
DWIDTH 5 0
BBX 1 1 0 0
BITMAP
00
ENDCHAR
STARTCHAR exclamdown
ENCODING 161
SWIDTH 937 0
DWIDTH 15 0
BBX 14 15 -1 -3
BITMAP
3FF0
7FF8
FFFC
FFFC
FFFC
FFFC
FFFC
FFFC
FFFC
FFFC
FFFC
FFFC
FFFC
7FF8
3FF0
ENDCHAR
STARTCHAR cent
ENCODING 162
SWIDTH 937 0
DWIDTH 15 0
BBX 14 15 -1 -3
BITMAP
3FF0
7FF8
FFFC
FFFC
FFFC
FFFC
FFFC
FFFC
FFFC
FFFC
FFFC
FFFC
FFFC
7FF8
3FF0
ENDCHAR
STARTCHAR sterling
ENCODING 163
SWIDTH 937 0
DWIDTH 15 0
BBX 14 15 -1 -3
BITMAP
3FF0
7FF8
FFFC
FFFC
FFFC
FFFC
FFFC
FFFC
FFFC
FFFC
FFFC
FFFC
FFFC
7FF8
3FF0
ENDCHAR
STARTCHAR currency
ENCODING 164
SWIDTH 937 0
DWIDTH 15 0
BBX 14 15 -1 -3
BITMAP
3FF0
7FF8
FFFC
FFFC
FFFC
FFFC
FFFC
FFFC
FFFC
FFFC
FFFC
FFFC
FFFC
7FF8
3FF0
ENDCHAR
STARTCHAR yen
ENCODING 165
SWIDTH 937 0
DWIDTH 15 0
BBX 14 15 -1 -3
BITMAP
3FF0
7FF8
FFFC
FFFC
FFFC
FFFC
FFFC
FFFC
FFFC
FFFC
FFFC
FFFC
FFFC
7FF8
3FF0
ENDCHAR
STARTCHAR brokenbar
ENCODING 166
SWIDTH 937 0
DWIDTH 15 0
BBX 14 15 -1 -3
BITMAP
3FF0
7FF8
FFFC
FFFC
FFFC
FFFC
FFFC
FFFC
FFFC
FFFC
FFFC
FFFC
FFFC
7FF8
3FF0
ENDCHAR
STARTCHAR section
ENCODING 167
SWIDTH 937 0
DWIDTH 15 0
BBX 14 15 -1 -3
BITMAP
3FF0
7FF8
FFFC
FFFC
FFFC
FFFC
FFFC
FFFC
FFFC
FFFC
FFFC
FFFC
FFFC
7FF8
3FF0
ENDCHAR
STARTCHAR dieresis
ENCODING 168
SWIDTH 937 0
DWIDTH 15 0
BBX 14 15 -1 -3
BITMAP
3FF0
7FF8
FFFC
FFFC
FFFC
FFFC
FFFC
FFFC
FFFC
FFFC
FFFC
FFFC
FFFC
7FF8
3FF0
ENDCHAR
STARTCHAR copyright
ENCODING 169
SWIDTH 937 0
DWIDTH 15 0
BBX 14 15 -1 -3
BITMAP
3FF0
7FF8
FFFC
FFFC
FFFC
FFFC
FFFC
FFFC
FFFC
FFFC
FFFC
FFFC
FFFC
7FF8
3FF0
ENDCHAR
STARTCHAR ordfeminine
ENCODING 170
SWIDTH 937 0
DWIDTH 15 0
BBX 14 15 -1 -3
BITMAP
3FF0
7FF8
FFFC
FFFC
FFFC
FFFC
FFFC
FFFC
FFFC
FFFC
FFFC
FFFC
FFFC
7FF8
3FF0
ENDCHAR
STARTCHAR guillemotleft
ENCODING 171
SWIDTH 937 0
DWIDTH 15 0
BBX 14 15 -1 -3
BITMAP
3FF0
7FF8
FFFC
FFFC
FF7C
FE7C
FC7C
F87C
FC7C
FE7C
FF7C
FFFC
FFFC
7FF8
3FF0
ENDCHAR
STARTCHAR logicalnot
ENCODING 172
SWIDTH 937 0
DWIDTH 15 0
BBX 14 15 -1 -3
BITMAP
3FF0
7FF8
FFFC
FFFC
FFFC
FFFC
FFFC
FFFC
FFFC
FFFC
FFFC
FFFC
FFFC
7FF8
3FF0
ENDCHAR
STARTCHAR registered
ENCODING 174
SWIDTH 937 0
DWIDTH 15 0
BBX 14 15 -1 -3
BITMAP
3FF0
7FF8
FFFC
FFFC
FFFC
FFFC
FFFC
FFFC
FFFC
FFFC
FFFC
FFFC
FFFC
7FF8
3FF0
ENDCHAR
STARTCHAR macron
ENCODING 175
SWIDTH 937 0
DWIDTH 15 0
BBX 14 15 -1 -3
BITMAP
3FF0
7FF8
FFFC
FFFC
FFFC
FFFC
FFFC
FFFC
FFFC
FFFC
FFFC
FFFC
FFFC
7FF8
3FF0
ENDCHAR
STARTCHAR degree
ENCODING 176
SWIDTH 937 0
DWIDTH 15 0
BBX 14 15 -1 -3
BITMAP
3FF0
7FF8
FFFC
FFFC
FFFC
FFFC
FFFC
FFFC
FFFC
FFFC
FFFC
FFFC
FFFC
7FF8
3FF0
ENDCHAR
STARTCHAR plusminus
ENCODING 177
SWIDTH 937 0
DWIDTH 15 0
BBX 14 15 -1 -3
BITMAP
3FF0
7FF8
FFFC
FFFC
FFFC
FFFC
FFFC
FFFC
FFFC
FFFC
FFFC
FFFC
FFFC
7FF8
3FF0
ENDCHAR
STARTCHAR uni00B2
ENCODING 178
SWIDTH 937 0
DWIDTH 15 0
BBX 14 15 -1 -3
BITMAP
3FF0
7FF8
FFFC
FFFC
FFFC
FFFC
FFFC
FFFC
FFFC
FFFC
FFFC
FFFC
FFFC
7FF8
3FF0
ENDCHAR
STARTCHAR uni00B3
ENCODING 179
SWIDTH 937 0
DWIDTH 15 0
BBX 14 15 -1 -3
BITMAP
3FF0
7FF8
FFFC
FFFC
FFFC
FFFC
FFFC
FFFC
FFFC
FFFC
FFFC
FFFC
FFFC
7FF8
3FF0
ENDCHAR
STARTCHAR acute
ENCODING 180
SWIDTH 937 0
DWIDTH 15 0
BBX 14 15 -1 -3
BITMAP
3FF0
7FF8
FFFC
FFFC
FFFC
FFFC
FFFC
FFFC
FFFC
FFFC
FFFC
FFFC
FFFC
7FF8
3FF0
ENDCHAR
STARTCHAR uni00B5
ENCODING 181
SWIDTH 937 0
DWIDTH 15 0
BBX 14 15 -1 -3
BITMAP
3FF0
7FF8
FFFC
FFFC
FFFC
FFFC
FFFC
FFFC
FFFC
FFFC
FFFC
FFFC
FFFC
7FF8
3FF0
ENDCHAR
STARTCHAR paragraph
ENCODING 182
SWIDTH 937 0
DWIDTH 15 0
BBX 14 15 -1 -3
BITMAP
3FF0
7FF8
FFFC
FFFC
FFFC
FFFC
FFFC
FFFC
FFFC
FFFC
FFFC
FFFC
FFFC
7FF8
3FF0
ENDCHAR
STARTCHAR periodcentered
ENCODING 183
SWIDTH 937 0
DWIDTH 15 0
BBX 14 15 -1 -3
BITMAP
3FF0
7FF8
FFFC
FFFC
FFFC
FFFC
FCFC
FCFC
FFFC
FFFC
FFFC
FFFC
FFFC
7FF8
3FF0
ENDCHAR
STARTCHAR cedilla
ENCODING 184
SWIDTH 937 0
DWIDTH 15 0
BBX 15 14 -1 -2
BITMAP
3FF8
7FFC
FFFE
FFFE
FFFE
F01E
F83E
FC7E
FEFE
FFFE
FFFE
FFFE
7FFC
3FF8
ENDCHAR
STARTCHAR uni00B9
ENCODING 185
SWIDTH 937 0
DWIDTH 15 0
BBX 14 15 -1 -3
BITMAP
3FF0
7FF8
FFFC
FFFC
FFFC
FFFC
FFFC
FFFC
FFFC
FFFC
FFFC
FFFC
FFFC
7FF8
3FF0
ENDCHAR
STARTCHAR ordmasculine
ENCODING 186
SWIDTH 937 0
DWIDTH 15 0
BBX 14 15 -1 -3
BITMAP
3FF0
7FF8
FFFC
FFFC
FFFC
FFFC
FFFC
FFFC
FFFC
FFFC
FFFC
FFFC
FFFC
7FF8
3FF0
ENDCHAR
STARTCHAR guillemotright
ENCODING 187
SWIDTH 937 0
DWIDTH 15 0
BBX 14 15 -1 -3
BITMAP
3FF0
7FF8
FFFC
FFFC
FBFC
F9FC
F8FC
F87C
F8FC
F9FC
FBFC
FFFC
FFFC
7FF8
3FF0
ENDCHAR
STARTCHAR Euro
ENCODING 8364
SWIDTH 937 0
DWIDTH 15 0
BBX 14 15 -1 -3
BITMAP
3FF0
7FF8
FFFC
FFFC
FFFC
FFFC
FFFC
FFFC
FFFC
FFFC
FFFC
FFFC
FFFC
7FF8
3FF0
ENDCHAR
STARTCHAR uni3000
ENCODING 12288
SWIDTH 1000 0
DWIDTH 16 0
BBX 1 1 0 0
BITMAP
00
ENDCHAR
STARTCHAR .notdef
ENCODING -1
SWIDTH 365 0
DWIDTH 6 0
BBX 5 11 1 0
BITMAP
F8
88
88
88
88
88
88
88
88
88
F8
ENDCHAR
STARTCHAR .null
ENCODING -1
SWIDTH 0 0
DWIDTH 0 0
BBX 1 1 0 0
BITMAP
00
ENDCHAR
STARTCHAR nonmarkingreturn
ENCODING -1
SWIDTH 333 0
DWIDTH 5 0
BBX 1 1 0 0
BITMAP
00
ENDCHAR
ENDFONT
